<svg xmlns="http://www.w3.org/2000/svg" viewBox="0 0 1600 1200" width="1600" height="1200" preserveAspectRatio="xMidYMid slice"><rect width="1600" height="1200" fill="#BFC4BA"/><rect x="0" y="867" width="562" height="411" fill="#A8B4B0"/><rect x="997" y="101" width="471" height="155" fill="#7F918C"/><rect x="188" y="584" width="240" height="186" fill="#D8C39B"/><rect x="1044" y="279" width="571" height="300" fill="#A8B4B0"/><rect x="1166" y="285" width="238" height="262" fill="#7F918C"/><rect x="626" y="411" width="493" height="248" fill="#D8C39B"/><rect x="431" y="496" width="329" height="179" fill="#A8B4B0"/><rect x="549" y="944" width="446" height="180" fill="#7F918C"/><rect x="995" y="756" width="259" height="163" fill="#D8C39B"/><ellipse cx="745" cy="795" rx="220" ry="140" fill="#9FB0B3"/><path d="M0 701 C 500 200, 900 1000, 1600 607" stroke="#CFD5D2" stroke-width="44" fill="none"/><circle cx="225" cy="30" r="42" fill="#4F615D"/><circle cx="1399" cy="31" r="31" fill="#4F615D"/><circle cx="593" cy="-16" r="60" fill="#4F615D"/><circle cx="236" cy="26" r="43" fill="#4F615D"/><circle cx="1276" cy="6" r="34" fill="#4F615D"/><circle cx="257" cy="4" r="26" fill="#4F615D"/><circle cx="1025" cy="15" r="37" fill="#4F615D"/><circle cx="1068" cy="37" r="31" fill="#4F615D"/><circle cx="809" cy="37" r="39" fill="#4F615D"/><circle cx="571" cy="34" r="29" fill="#4F615D"/><circle cx="842" cy="3" r="36" fill="#4F615D"/><circle cx="1298" cy="-8" r="54" fill="#4F615D"/><circle cx="1306" cy="-12" r="65" fill="#4F615D"/><circle cx="796" cy="19" r="55" fill="#4F615D"/><circle cx="939" cy="-9" r="48" fill="#4F615D"/><circle cx="469" cy="37" r="37" fill="#4F615D"/><circle cx="1568" cy="14" r="66" fill="#4F615D"/><circle cx="534" cy="34" r="71" fill="#4F615D"/><circle cx="1394" cy="1" r="40" fill="#4F615D"/><circle cx="217" cy="-2" r="70" fill="#4F615D"/><circle cx="1408" cy="23" r="40" fill="#4F615D"/><circle cx="957" cy="-11" r="58" fill="#4F615D"/><circle cx="1102" cy="34" r="36" fill="#4F615D"/><circle cx="710" cy="27" r="42" fill="#4F615D"/><circle cx="831" cy="-17" r="70" fill="#4F615D"/><circle cx="249" cy="29" r="68" fill="#4F615D"/></svg>
