<svg xmlns="http://www.w3.org/2000/svg" viewBox="0 0 1600 1200" width="1600" height="1200" preserveAspectRatio="xMidYMid slice"><rect width="1600" height="1200" fill="#C8C4B8"/><rect x="1" y="972" width="180" height="213" fill="#B9B6AC"/><rect x="331" y="605" width="367" height="414" fill="#8E8B80"/><rect x="4" y="539" width="297" height="279" fill="#B8664E"/><rect x="58" y="832" width="510" height="142" fill="#B9B6AC"/><rect x="799" y="408" width="295" height="283" fill="#8E8B80"/><rect x="177" y="399" width="251" height="214" fill="#B8664E"/><rect x="1186" y="927" width="527" height="317" fill="#B9B6AC"/><rect x="67" y="163" width="264" height="239" fill="#8E8B80"/><rect x="1274" y="516" width="165" height="239" fill="#B8664E"/><ellipse cx="818" cy="436" rx="220" ry="140" fill="#9FB0B3"/><path d="M0 615 C 500 200, 900 1000, 1600 545" stroke="#D5D3CB" stroke-width="44" fill="none"/><circle cx="149" cy="8" r="29" fill="#5C5A52"/><circle cx="1485" cy="34" r="50" fill="#5C5A52"/><circle cx="763" cy="4" r="67" fill="#5C5A52"/><circle cx="208" cy="0" r="55" fill="#5C5A52"/><circle cx="963" cy="-16" r="52" fill="#5C5A52"/><circle cx="1320" cy="13" r="62" fill="#5C5A52"/><circle cx="301" cy="44" r="36" fill="#5C5A52"/><circle cx="1184" cy="40" r="43" fill="#5C5A52"/><circle cx="467" cy="-6" r="34" fill="#5C5A52"/><circle cx="1294" cy="42" r="37" fill="#5C5A52"/><circle cx="860" cy="26" r="43" fill="#5C5A52"/><circle cx="692" cy="27" r="30" fill="#5C5A52"/><circle cx="1395" cy="2" r="56" fill="#5C5A52"/><circle cx="1313" cy="15" r="66" fill="#5C5A52"/><circle cx="1346" cy="-16" r="48" fill="#5C5A52"/><circle cx="585" cy="17" r="27" fill="#5C5A52"/><circle cx="1554" cy="11" r="30" fill="#5C5A52"/><circle cx="376" cy="-7" r="54" fill="#5C5A52"/><circle cx="526" cy="28" r="65" fill="#5C5A52"/><circle cx="960" cy="-13" r="39" fill="#5C5A52"/><circle cx="763" cy="-9" r="63" fill="#5C5A52"/><circle cx="722" cy="6" r="33" fill="#5C5A52"/><circle cx="844" cy="-2" r="61" fill="#5C5A52"/><circle cx="671" cy="20" r="55" fill="#5C5A52"/><circle cx="629" cy="-5" r="36" fill="#5C5A52"/><circle cx="1005" cy="-0" r="48" fill="#5C5A52"/></svg>
